# xmcd
#
# Track frame offsets: 
#        150
#        20537
#        41343
#        60292
#        73612
#        93879
#        117625
#        128968
#        148260
#        173333
#        184765
#
# Disc length: 2822 seconds
#
# Revision: 0
# Processed by: cddbd v1.5.2PL0 Copyright (c) Steve Scherf et al.
# Submitted via: ExactAudioCopyFreeDBPlugin 1.0
#
DISCID=920b040b
DTITLE=John Mayer - Battle Studies
DYEAR=2010
DGENRE=Country
TTITLE0=Heartbreak Warfare
TTITLE1=All We Ever Do Is Say Goodbye
TTITLE2=Half Of My Heart
TTITLE3=Who Says
TTITLE4=Perfectly Lonely
TTITLE5=Assassin
TTITLE6=Crossroads
TTITLE7=War Of My Life
TTITLE8=Edge Of Desire
TTITLE9=Do You Know Me
TTITLE10=Friends, Lovers Or Nothing
EXTD=
EXTT0=
EXTT1=
EXTT2=
EXTT3=
EXTT4=
EXTT5=
EXTT6=
EXTT7=
EXTT8=
EXTT9=
EXTT10=
PLAYORDER=
